<svg width="42" height="42" viewBox="0 0 42 42" fill="none" xmlns="http://www.w3.org/2000/svg">
<path d="M33.25 35H8.75V7H12.25V12.25H29.75V7H33.25M21 3.5C21.4641 3.5 21.9092 3.68437 22.2374 4.01256C22.5656 4.34075 22.75 4.78587 22.75 5.25C22.75 5.71413 22.5656 6.15925 22.2374 6.48744C21.9092 6.81563 21.4641 7 21 7C20.5359 7 20.0908 6.81563 19.7626 6.48744C19.4344 6.15925 19.25 5.71413 19.25 5.25C19.25 4.78587 19.4344 4.34075 19.7626 4.01256C20.0908 3.68437 20.5359 3.5 21 3.5ZM33.25 3.5H25.935C25.2 1.47 23.275 0 21 0C18.725 0 16.8 1.47 16.065 3.5H8.75C7.82174 3.5 6.9315 3.86875 6.27513 4.52513C5.61875 5.1815 5.25 6.07174 5.25 7V35C5.25 35.9283 5.61875 36.8185 6.27513 37.4749C6.9315 38.1312 7.82174 38.5 8.75 38.5H33.25C34.1783 38.5 35.0685 38.1312 35.7249 37.4749C36.3813 36.8185 36.75 35.9283 36.75 35V7C36.75 6.07174 36.3813 5.1815 35.7249 4.52513C35.0685 3.86875 34.1783 3.5 33.25 3.5Z" fill="currentColor"/>
</svg>
