<svg width="42" height="42" viewBox="0 0 42 42" fill="none" xmlns="http://www.w3.org/2000/svg">
<path d="M21 14H7C6.07174 14 5.1815 14.3687 4.52513 15.0251C3.86875 15.6815 3.5 16.5717 3.5 17.5V24.5C3.5 25.4283 3.86875 26.3185 4.52513 26.9749C5.1815 27.6313 6.07174 28 7 28H8.75V35C8.75 35.4641 8.93437 35.9093 9.26256 36.2374C9.59075 36.5656 10.0359 36.75 10.5 36.75H14C14.4641 36.75 14.9092 36.5656 15.2374 36.2374C15.5656 35.9093 15.75 35.4641 15.75 35V28H21L29.75 35V7L21 14ZM26.25 27.3L22.75 24.5H7V17.5H22.75L26.25 14.7V27.3ZM37.625 21C37.625 23.9925 35.945 26.705 33.25 28V14C35.9275 15.3125 37.625 18.025 37.625 21Z" fill="currentColor"/>
</svg>
