<svg width="42" height="42" viewBox="0 0 42 42" fill="none" xmlns="http://www.w3.org/2000/svg">
<path d="M21 35C17.7511 35 14.6353 33.7094 12.3379 31.4121C10.0406 29.1147 8.75 25.9989 8.75 22.75C8.75 19.5011 10.0406 16.3853 12.3379 14.0879C14.6353 11.7906 17.7511 10.5 21 10.5C24.2489 10.5 27.3647 11.7906 29.6621 14.0879C31.9594 16.3853 33.25 19.5011 33.25 22.75C33.25 25.9989 31.9594 29.1147 29.6621 31.4121C27.3647 33.7094 24.2489 35 21 35ZM33.3025 12.9325L35.7875 10.4475C35 9.555 34.2125 8.75 33.32 7.98L30.835 10.5C28.1225 8.295 24.71 7 21 7C16.8228 7 12.8168 8.65937 9.86307 11.6131C6.90937 14.5668 5.25 18.5728 5.25 22.75C5.25 26.9272 6.90937 30.9332 9.86307 33.8869C12.8168 36.8406 16.8228 38.5 21 38.5C29.75 38.5 36.75 31.4475 36.75 22.75C36.75 19.04 35.455 15.6275 33.3025 12.9325ZM19.25 24.5H22.75V14H19.25M26.25 1.75H15.75V5.25H26.25V1.75Z" fill="currentColor"/>
</svg>
